<svg width="48" height="48" viewBox="0 0 48 48" fill="none" xmlns="http://www.w3.org/2000/svg">
<circle cx="24" cy="24" r="24" fill="white"/>
<circle cx="24" cy="24" r="24" stroke="white"/>
<path d="M35.8737 17.6674L32.5642 12H15.3663L12.0632 17.6674H12V19.6658C12.0264 20.397 12.3361 21.0879 12.8615 21.5876C13.3869 22.0872 14.0853 22.355 14.8042 22.3324H15.2337C15.9525 22.355 16.651 22.0872 17.1764 21.5876C17.7018 21.0879 18.0115 20.397 18.0379 19.6658C18.0626 20.3965 18.371 21.0873 18.8954 21.5871C19.4198 22.087 20.1175 22.355 20.8358 22.3324H21.2716C22.5916 22.3324 23.6968 20.8096 23.9874 19.6337C24.2779 20.8096 25.3832 22.3324 26.7095 22.3324H27.1579C27.8768 22.355 28.5752 22.0872 29.1006 21.5876C29.626 21.0879 29.9357 20.397 29.9621 19.6658C29.9868 20.3965 30.2952 21.0873 30.8196 21.5871C31.344 22.087 32.0418 22.355 32.76 22.3324H33.1895C33.9083 22.355 34.6068 22.0872 35.1322 21.5876C35.6576 21.0879 35.9673 20.397 35.9937 19.6658V17.6674H35.8737Z" stroke="#2521D6" stroke-width="2" stroke-linecap="round" stroke-linejoin="round"/>
<path d="M36 31.502H12V35.9999H36V31.502Z" stroke="#2521D6" stroke-width="2" stroke-linecap="round" stroke-linejoin="round"/>
<path d="M33.4737 22.5063V31.5023" stroke="#2521D6" stroke-width="2" stroke-linecap="round" stroke-linejoin="round"/>
<path d="M14.5263 22.5063V31.5023" stroke="#2521D6" stroke-width="2" stroke-linecap="round" stroke-linejoin="round"/>
</svg>
