<svg width="375" height="812" viewBox="0 0 375 812" fill="none" xmlns="http://www.w3.org/2000/svg">
<g clip-path="url(#clip0_516_36)">
<rect width="375" height="812" rx="24" fill="#121223"/>
<path fill-rule="evenodd" clip-rule="evenodd" d="M35.2712 202.03C53.9987 191.148 77.0178 191.338 95.5695 202.528C113.939 213.945 125.103 234.322 124.999 256.241C124.572 278.017 112.6 298.486 97.636 314.31C88.9991 323.484 79.3371 331.596 68.8476 338.481C67.7673 339.106 66.5839 339.524 65.3559 339.715C64.1741 339.665 63.0231 339.316 62.0068 338.699C45.9925 328.354 31.943 315.15 20.5344 299.72C10.9879 286.841 5.5643 271.281 5.00001 255.153C4.98761 233.191 16.5438 212.911 35.2712 202.03ZM46.0961 264.242C49.2463 272.009 56.682 277.074 64.9314 277.074C70.3357 277.113 75.5308 274.949 79.359 271.063C83.1872 267.177 85.3305 261.893 85.3113 256.387C85.3402 247.984 80.3931 240.393 72.78 237.156C65.1668 233.92 56.3894 235.679 50.546 241.61C44.7026 247.541 42.9459 256.476 46.0961 264.242Z" fill="#686868"/>
<ellipse opacity="0.4" cx="64.9962" cy="356.857" rx="42.8574" ry="8.57148" fill="#686868"/>
<path d="M390 -55L306.275 -26.2196C299.228 -23.7971 295.028 -16.5682 296.413 -9.24596L298.596 2.2928C299.977 9.59466 295.804 16.8073 288.785 19.2486L257.455 30.1462C246.35 34.0088 243.804 48.5652 252.939 55.9676L340.023 126.536C344.832 130.433 346.753 136.883 344.861 142.776L315.491 234.241C313.938 239.08 314.94 244.376 318.153 248.313L433 389" stroke="#686868" stroke-width="3" stroke-linecap="round" stroke-dasharray="8 8"/>
<circle cx="-2.5" cy="-5.5" r="88.5" stroke="#686868" stroke-width="94" stroke-dasharray="4 4"/>
</g>
<defs>
<clipPath id="clip0_516_36">
<rect width="375" height="812" rx="24" fill="white"/>
</clipPath>
</defs>
</svg>
