<svg width="57" height="57" viewBox="0 0 57 57" fill="none" xmlns="http://www.w3.org/2000/svg">
<circle cx="28.5" cy="28.5" r="28" fill="#FFF1F2" stroke="#FF7622"/>
<path d="M39.3021 23.9203L32.1139 18.0899C31.2428 17.3867 30.1318 17 28.9826 17C27.8334 17 26.7224 17.3867 25.8513 18.0899L18.6631 23.9203C18.1412 24.3443 17.7226 24.8687 17.4357 25.4578C17.1487 26.047 17.0001 26.6871 17 27.3349V37.6115C17 38.057 17.0936 38.4982 17.2756 38.9097C17.4575 39.3213 17.7241 39.6951 18.0602 40.0098C18.3963 40.3246 18.7953 40.574 19.2343 40.7439C19.6732 40.9138 20.1436 41.0009 20.6184 41H25.4407V33.57C25.4407 32.6835 25.8161 31.8332 26.4842 31.2063C27.1524 30.5794 28.0586 30.2272 29.0035 30.2272C29.9484 30.2272 30.8546 30.5794 31.5227 31.2063C32.1909 31.8332 32.5663 32.6835 32.5663 33.57V41H37.813C38.6582 41 39.4689 40.685 40.0665 40.1242C40.6642 39.5634 41 38.8028 41 38.0098V27.3349C40.9956 26.6846 40.8416 26.0429 40.5485 25.4536C40.2555 24.8643 39.8304 24.3413 39.3021 23.9203Z" stroke="#FF7622" stroke-width="2" stroke-linecap="round" stroke-linejoin="round"/>
</svg>
