<svg width="48" height="48" viewBox="0 0 48 48" fill="none" xmlns="http://www.w3.org/2000/svg">
<circle cx="24" cy="24" r="24" fill="white"/>
<path d="M19.2296 27.1422V15.8311L20.4864 16.4594L21.7432 15.8311L22.9976 16.4594L24.269 15.8311L25.5136 16.4594L26.7621 15.8311L28.0162 16.4594L29.2839 15.8311L30.5411 16.4594L31.7975 15.8311V24.6286" stroke="#18CFE8" stroke-width="1.25679" stroke-linejoin="round"/>
<path d="M31.7975 24.6284V29.0272C31.7975 29.8605 31.4665 30.6597 30.8773 31.2489C30.288 31.8381 29.4888 32.1691 28.6555 32.1691V32.1691C27.8222 32.1691 27.0231 31.8381 26.4338 31.2489C25.8446 30.6597 25.5136 29.8605 25.5136 29.0272V27.142H14.8309C14.7481 27.1413 14.6661 27.157 14.5895 27.1883C14.513 27.2197 14.4434 27.2659 14.3849 27.3244C14.3264 27.3829 14.2801 27.4525 14.2488 27.529C14.2175 27.6056 14.2017 27.6877 14.2025 27.7704C14.2025 30.284 14.4672 32.1691 17.3444 32.1691H28.6555" stroke="#18CFE8" stroke-width="1.25679" stroke-linejoin="round"/>
<path d="M24.2568 22.743H29.2839M21.7432 19.6011H29.2839H21.7432Z" stroke="#18CFE8" stroke-width="1.25679" stroke-linecap="round" stroke-linejoin="round"/>
</svg>
