<svg width="48" height="48" viewBox="0 0 48 48" fill="none" xmlns="http://www.w3.org/2000/svg">
<circle cx="24" cy="24" r="24" fill="white"/>
<circle cx="24" cy="24" r="24" stroke="white"/>
<g clip-path="url(#clip0_31_464)">
<path d="M34.8811 12.2534H13.1189C12.501 12.2534 12 12.7544 12 13.3724V16.6794C12 17.2974 12.501 17.7984 13.1189 17.7984H16.4459V22.2741C15.8591 22.9455 13.3925 25.8597 13.0941 27.7893C13.0922 27.8141 13.0922 27.8391 13.0941 27.8639V35.2489C13.0941 35.5235 13.3167 35.7462 13.5914 35.7462H19.6187C19.7815 35.7459 19.9338 35.666 20.0265 35.5323L22.5727 31.8672C22.6046 31.8201 22.6281 31.768 22.6424 31.713C22.6424 31.6334 22.9059 30.7482 23.1993 29.5348H31.0568C31.3314 29.5348 31.5541 29.3121 31.5541 29.0375V17.7984H34.8811C35.499 17.7984 36 17.2974 36 16.6794V13.3724C36 12.7544 35.499 12.2534 34.8811 12.2534ZM23.2242 24.2484C22.8576 26.6481 22.3511 29.0243 21.7074 31.3649L19.3552 34.7466H14.0837V27.9235C14.2777 26.7897 15.4911 25.0491 16.4459 23.8506V29.0375C16.4459 29.3121 16.6686 29.5348 16.9432 29.5348H18.7385C18.7998 29.5343 18.8605 29.5226 18.9175 29.5L18.9722 29.4702C19.0079 29.4526 19.0412 29.4309 19.0717 29.4055L19.1165 29.3558C19.1395 29.3282 19.1595 29.2982 19.1761 29.2663L19.206 29.2016C19.206 29.2016 19.206 29.2016 19.206 29.1668C19.7033 27.3268 20.7874 24.149 21.608 23.4428C22.1649 22.9455 22.4882 22.8908 22.6274 22.8908C22.7325 22.8884 22.8323 22.9365 22.896 23.0201C23.1396 23.3813 23.2552 23.8138 23.2242 24.2484ZM30.5595 28.5402H23.438C23.7464 27.1925 24.0597 25.6409 24.2138 24.3678C24.2745 23.6585 24.0747 22.9513 23.6519 22.3786C23.4029 22.0878 23.0401 21.9191 22.6573 21.9161C22.0238 21.9719 21.4312 22.2523 20.9863 22.7068C19.8326 23.7014 18.7286 27.3268 18.3755 28.5601H17.4405V15.5456H30.5595V28.5402ZM35.0054 16.6745C35.0054 16.7432 34.9498 16.7988 34.8811 16.7988H31.5541V15.5456H32.4542C32.7288 15.5456 32.9515 15.3229 32.9515 15.0483C32.9515 14.7736 32.7288 14.551 32.4542 14.551H15.5458C15.2712 14.551 15.0485 14.7736 15.0485 15.0483C15.0485 15.3229 15.2712 15.5456 15.5458 15.5456H16.4509V16.8237H13.1189C13.0502 16.8237 12.9946 16.768 12.9946 16.6993V13.3724C12.9946 13.3037 13.0502 13.248 13.1189 13.248H34.8811C34.9498 13.248 35.0054 13.3037 35.0054 13.3724V16.6745Z" fill="#FF7622"/>
</g>
<defs>
<clipPath id="clip0_31_464">
<rect width="24" height="24" fill="white" transform="translate(12 12)"/>
</clipPath>
</defs>
</svg>
